<svg width="74" height="74" viewBox="0 0 74 74" fill="none" xmlns="http://www.w3.org/2000/svg">
<path fill-rule="evenodd" clip-rule="evenodd" d="M52.3454 38.4774V65.0002H46.2373V60.9018H10.2123V65.0002H4.1043V38.4774H2V34.4006H7.13911L10.0032 25.3545C10.8483 22.6858 12.2569 20.264 15.0142 20.264H42.4983C45.2556 20.264 46.8435 22.6381 47.5093 25.3502L49.7246 34.3962H54.4454V38.473H52.3454V38.4774ZM19.0777 52.7179H37.1201V57.0373H19.0777V52.7179ZM6.14885 42.6581C10.7459 42.8054 13.5587 44.7593 14.2801 48.8361H6.14885V42.6581ZM49.7203 42.6581C45.1233 42.8054 42.3104 44.7593 41.5891 48.8361H49.7203V42.6581ZM9.33305 34.3962H47.1166L45.4989 26.8102C45.055 24.7307 43.7788 22.9327 41.6787 22.9327H15.5478C13.4478 22.9327 12.3721 24.7783 11.7276 26.8102L9.33305 34.3962Z" fill="#E00928"/>
<path d="M56.9069 25.8963L60.9021 21.8412L64.8973 25.8963L66.4509 24.3193L62.4558 20.2642L66.4509 16.2091L64.8973 14.6321L60.9021 18.6872L56.9069 14.6321L55.3532 16.2091L59.3484 20.2642L55.3532 24.3193L56.9069 25.8963ZM60.9021 31.5284C59.3669 31.5284 57.9242 31.2327 56.5739 30.6414C55.2237 30.05 54.0492 29.2474 53.0504 28.2337C52.0516 27.2199 51.2609 26.0277 50.6783 24.6573C50.0956 23.2868 49.8043 21.8224 49.8043 20.2642C49.8043 18.706 50.0956 17.2417 50.6783 15.8712C51.2609 14.5007 52.0516 13.3086 53.0504 12.2948C54.0492 11.281 55.2237 10.4784 56.5739 9.88706C57.9242 9.29569 59.3669 9 60.9021 9C62.4373 9 63.88 9.29569 65.2302 9.88706C66.5804 10.4784 67.7549 11.281 68.7537 12.2948C69.7525 13.3086 70.5432 14.5007 71.1259 15.8712C71.7085 17.2417 71.9998 18.706 71.9998 20.2642C71.9998 21.8224 71.7085 23.2868 71.1259 24.6573C70.5432 26.0277 69.7525 27.2199 68.7537 28.2337C67.7549 29.2474 66.5804 30.05 65.2302 30.6414C63.88 31.2327 62.4373 31.5284 60.9021 31.5284Z" fill="#E00928"/>
</svg>
