<svg width="74" height="74" viewBox="0 0 74 74" fill="none" xmlns="http://www.w3.org/2000/svg">
<path fill-rule="evenodd" clip-rule="evenodd" d="M52.5725 38.4839V65.12H46.3738V61.0041H9.81419V65.12H3.61551V38.4839H1.47998V34.3898H6.69536L9.60193 25.3051C10.4596 22.625 11.8891 20.1929 14.6874 20.1929H42.5792C45.3775 20.1929 46.9889 22.5772 47.6646 25.3008L49.9128 34.3854H54.7037V38.4796H52.5725V38.4839ZM18.8111 52.7853H37.1213V57.1231H18.8111V52.7853ZM5.6904 42.6825C10.3556 42.8305 13.2102 44.7927 13.9423 48.8869H5.6904V42.6825ZM49.9085 42.6825C45.2432 42.8305 42.3886 44.7927 41.6566 48.8869H49.9085V42.6825ZM8.92185 34.3854H47.2661L45.6244 26.767C45.1739 24.6786 43.8787 22.873 41.7475 22.873H15.2288C13.0976 22.873 12.006 24.7265 11.3519 26.767L8.92185 34.3854Z" fill="#6BBE66"/>
<path d="M59.6806 25.3959L67.6206 17.4208L66.0439 15.8371L59.6806 22.2285L56.4708 19.0045L54.894 20.5882L59.6806 25.3959ZM61.2573 31.5046C59.6993 31.5046 58.2352 31.2076 56.865 30.6137C55.4947 30.0198 54.3028 29.2138 53.2891 28.1957C52.2755 27.1776 51.4731 25.9804 50.8818 24.6041C50.2905 23.2277 49.9949 21.7571 49.9949 20.1923C49.9949 18.6274 50.2905 17.1568 50.8818 15.7805C51.4731 14.4042 52.2755 13.2069 53.2891 12.1888C54.3028 11.1707 55.4947 10.3647 56.865 9.77085C58.2352 9.17695 59.6993 8.88 61.2573 8.88C62.8153 8.88 64.2794 9.17695 65.6497 9.77085C67.0199 10.3647 68.2119 11.1707 69.2255 12.1888C70.2391 13.2069 71.0416 14.4042 71.6328 15.7805C72.2241 17.1568 72.5198 18.6274 72.5198 20.1923C72.5198 21.7571 72.2241 23.2277 71.6328 24.6041C71.0416 25.9804 70.2391 27.1776 69.2255 28.1957C68.2119 29.2138 67.0199 30.0198 65.6497 30.6137C64.2794 31.2076 62.8153 31.5046 61.2573 31.5046Z" fill="#6BBE66"/>
</svg>
