<svg width="26" height="16" viewBox="0 0 26 16" fill="none" xmlns="http://www.w3.org/2000/svg">
<path d="M1.79998 6.59995C1.13724 6.59995 0.599976 7.13723 0.599976 7.79995C0.599976 8.46267 1.13724 8.99995 1.79998 8.99995V6.59995ZM24.2 8.99995C24.8627 8.99995 25.4 8.46267 25.4 7.79995C25.4 7.13723 24.8627 6.59995 24.2 6.59995V8.99995ZM1.79998 0.199951C1.13724 0.199951 0.599976 0.737215 0.599976 1.39995C0.599976 2.06269 1.13724 2.59995 1.79998 2.59995V0.199951ZM16.7328 2.59995C17.3955 2.59995 17.9328 2.06269 17.9328 1.39995C17.9328 0.737215 17.3955 0.199951 16.7328 0.199951V2.59995ZM1.79998 13C1.13724 13 0.599976 13.5372 0.599976 14.2C0.599976 14.8627 1.13724 15.4 1.79998 15.4V13ZM16.7328 15.4C17.3955 15.4 17.9328 14.8627 17.9328 14.2C17.9328 13.5372 17.3955 13 16.7328 13V15.4ZM1.79998 8.99995H24.2V6.59995H1.79998V8.99995ZM1.79998 2.59995H16.7328V0.199951H1.79998V2.59995ZM1.79998 15.4H16.7328V13H1.79998V15.4Z" fill="#F1A7CD"/>
</svg>
