<svg width="24" height="24" viewBox="0 0 24 24" fill="none" xmlns="http://www.w3.org/2000/svg">
<path d="M21.7099 10.2899L12.7099 1.28994C12.6169 1.19621 12.5063 1.12182 12.3845 1.07105C12.2626 1.02028 12.1319 0.994141 11.9999 0.994141C11.8679 0.994141 11.7372 1.02028 11.6153 1.07105C11.4935 1.12182 11.3829 1.19621 11.2899 1.28994L2.2899 10.2899C2.15114 10.4306 2.05714 10.6091 2.01977 10.8031C1.98239 10.9971 2.00332 11.1978 2.0799 11.3799C2.15492 11.5626 2.28231 11.7189 2.44603 11.8292C2.60975 11.9395 2.80247 11.999 2.9999 11.9999H3.9999V19.2999C4.01813 19.7677 4.22092 20.2092 4.56388 20.5278C4.90685 20.8464 5.36206 21.0162 5.8299 20.9999H8.4999C8.76511 20.9999 9.01947 20.8946 9.207 20.707C9.39454 20.5195 9.4999 20.2652 9.4999 19.9999V15.0999C9.4999 14.8347 9.60525 14.5804 9.79279 14.3928C9.98033 14.2053 10.2347 14.0999 10.4999 14.0999H13.4999C13.7651 14.0999 14.0195 14.2053 14.207 14.3928C14.3945 14.5804 14.4999 14.8347 14.4999 15.0999V19.9999C14.4999 20.2652 14.6053 20.5195 14.7928 20.707C14.9803 20.8946 15.2347 20.9999 15.4999 20.9999H18.1699C18.6377 21.0162 19.0929 20.8464 19.4359 20.5278C19.7789 20.2092 19.9817 19.7677 19.9999 19.2999V11.9999H20.9999C21.1973 11.999 21.39 11.9395 21.5538 11.8292C21.7175 11.7189 21.8449 11.5626 21.9199 11.3799C21.9965 11.1978 22.0174 10.9971 21.98 10.8031C21.9426 10.6091 21.8487 10.4306 21.7099 10.2899Z" fill="#7C7C7C"/>
</svg>
