<svg width="74" height="74" viewBox="0 0 74 74" fill="none" xmlns="http://www.w3.org/2000/svg">
<path d="M31.8488 46.4175C25.0392 46.4228 9.89124 50.3854 9.89124 57.1382V67.5605C9.89124 68.7488 10.0635 69.9004 10.3811 70.9893H63.6196C63.9372 69.9004 64.1095 68.7488 64.1095 67.5605V57.1382C64.1095 50.3854 50.2858 46.3966 43.4762 46.4071L31.8488 46.4175Z" fill="#B1D423"/>
<path fill-rule="evenodd" clip-rule="evenodd" d="M62.4632 51.9904C63.9721 53.4143 65 55.1399 65 57.1391V67.5614C65 68.8313 64.8159 70.0625 64.4763 71.2266C64.3676 71.5993 64.0177 71.8565 63.6193 71.8565H10.3807C9.98235 71.8565 9.63239 71.5993 9.52367 71.2266C9.18412 70.0625 9 68.8313 9 67.5614V57.1391C9 55.1097 10.1421 53.3793 11.7719 51.9688C13.4032 50.5569 15.6115 49.3834 17.9803 48.446C22.7132 46.5731 28.316 45.5548 31.8476 45.5521C31.8476 45.5521 31.8477 45.5521 31.8477 45.5521L43.4744 45.5416M55.9877 50.0305C51.7843 48.2348 46.748 47.2693 43.4772 47.2743L31.8491 47.2848C28.5711 47.2873 23.1953 48.253 18.6518 50.0509C16.3824 50.9489 14.3782 52.0325 12.9564 53.263C11.5332 54.4949 10.7818 55.7922 10.7818 57.1391V67.5614C10.7818 68.4414 10.8832 69.2996 11.0734 70.1238H62.9266C63.1168 69.2996 63.2182 68.4414 63.2182 67.5614V57.1391C63.2182 55.7619 62.5181 54.4566 61.2223 53.2338C59.9235 52.0081 58.0865 50.9271 55.9877 50.0305Z" fill="#242424"/>
<path d="M48.9231 22.8461C46.63 22.8461 44.7728 24.7149 44.7728 27.0234C44.7728 29.3319 46.63 31.2059 48.9231 31.2059C51.2163 31.2059 53.0789 29.3319 53.0789 27.0234C53.0789 24.7149 51.2163 22.8461 48.9231 22.8461ZM25.1192 22.8461C22.826 22.8461 20.9635 24.7149 20.9635 27.0234C20.9635 29.3319 22.826 31.2059 25.1192 31.2059C27.4124 31.2059 29.275 29.3319 29.275 27.0234C29.275 24.7149 27.4124 22.8461 25.1192 22.8461Z" fill="#FEDBAB"/>
<path fill-rule="evenodd" clip-rule="evenodd" d="M20.0631 27.024C20.0631 24.2583 22.3019 21.9698 25.1205 21.9698C27.9392 21.9698 30.1779 24.2583 30.1779 27.024C30.1779 29.7882 27.9406 32.0834 25.1205 32.0834C22.3005 32.0834 20.0631 29.7882 20.0631 27.024ZM25.1205 23.7235C23.3528 23.7235 21.8665 25.1726 21.8665 27.024C21.8665 28.8768 23.3542 30.3297 25.1205 30.3297C26.8868 30.3297 28.3746 28.8768 28.3746 27.024C28.3746 25.1726 26.8883 23.7235 25.1205 23.7235ZM43.8724 27.024C43.8724 24.2598 46.1043 21.9698 48.9244 21.9698C51.7431 21.9698 53.9819 24.2583 53.9819 27.024C53.9819 29.7882 51.7445 32.0834 48.9244 32.0834C46.1029 32.0834 43.8724 29.7867 43.8724 27.024ZM48.9244 23.7235C47.1582 23.7235 45.6758 25.1711 45.6758 27.024C45.6758 28.8783 47.1596 30.3297 48.9244 30.3297C50.6907 30.3297 52.1785 28.8768 52.1785 27.024C52.1785 25.1726 50.6922 23.7235 48.9244 23.7235Z" fill="#242424"/>
<path d="M31.4714 27.6397H43.0773L43.5796 46.2899L45.3211 46.6391L37.5636 63.6248L29.9039 46.6391L31.8151 46.3997L31.4714 27.6397Z" fill="#FFE8BD"/>
<path fill-rule="evenodd" clip-rule="evenodd" d="M30.5533 26.7625H43.9555L44.4621 45.5712L46.5994 45.9997L37.5582 65.7961L28.5945 45.9186L30.8991 45.6299L30.5533 26.7625ZM32.3891 28.5161L32.7309 47.1686L31.2131 47.3587L37.5687 61.4526L44.0426 47.2776L42.6968 47.0078L42.1987 28.5161H32.3891Z" fill="#242424"/>
<path d="M26.0987 12.7856C25.3397 14.4083 24.9091 16.2248 24.9091 18.1355V30.3323C24.9091 37.1793 30.3567 42.7805 36.9994 42.7805C43.6529 42.7805 49.0952 37.1793 49.0952 30.3323V18.1355C49.0952 16.2248 48.6645 14.4083 47.9109 12.7856H26.0987Z" fill="#FFE8BD"/>
<path fill-rule="evenodd" clip-rule="evenodd" d="M25.5187 11.9078H48.4935L48.7331 12.4238C49.5376 14.156 49.9973 16.0951 49.9973 18.1345V30.3314C49.9973 37.6152 44.1988 43.6564 36.9999 43.6564C29.8117 43.6564 24.0078 37.6152 24.0078 30.3314V18.1345C24.0078 16.0951 24.4676 14.1551 25.2784 12.4216L25.5187 11.9078ZM26.6943 13.6615C26.128 15.0394 25.8112 16.5519 25.8112 18.1345V30.3314C25.8112 36.7416 30.9026 41.9027 36.9999 41.9027C43.1079 41.9027 48.1939 36.7416 48.1939 30.3314V18.1345C48.1939 16.5525 47.8774 15.04 47.3146 13.6615H26.6943Z" fill="#242424"/>
<path d="M50.5575 16.7792C40.9512 21.6102 32.3208 17.5205 23.2853 17.1336C20.6885 12.5398 22.9201 9.60629 26.1254 7.08626C29.6621 4.31028 33.4219 2.88619 36.9248 2.84682C40.8739 2.80747 44.5865 4.62529 47.2102 6.67938C50.7537 9.46192 52.3766 13.3142 50.5575 16.7792Z" fill="#B1D423"/>
<path fill-rule="evenodd" clip-rule="evenodd" d="M46.663 7.33813C44.1345 5.35887 40.6133 3.65693 36.9339 3.69342C33.6678 3.73029 30.0916 5.06089 26.672 7.7449C25.1002 8.98069 23.8922 10.2271 23.3429 11.6331C22.8504 12.8936 22.8466 14.3922 23.8258 16.3134C25.9685 16.4362 28.0785 16.7495 30.1506 17.0862C30.5422 17.1498 30.932 17.2142 31.3205 17.2783C33.1625 17.5826 34.9738 17.8817 36.7996 18.0717C41.1106 18.5202 45.3985 18.346 49.9014 16.1543C51.265 13.2487 49.9497 9.91902 46.663 7.33813ZM36.9155 2.00067C41.1337 1.95865 45.0369 3.89181 47.7557 6.0203L47.7562 6.02069L47.7567 6.02109C51.4659 8.93382 53.4161 13.1951 51.3324 17.1643L51.2053 17.4064L50.957 17.5313C45.9472 20.0507 41.1974 20.2318 36.6144 19.7549C34.7301 19.5589 32.8556 19.2492 31.0122 18.9446C30.6279 18.8811 30.245 18.8178 29.8637 18.7559C27.638 18.3942 25.4489 18.0737 23.2466 17.9794L22.7578 17.9585L22.5221 17.5416C21.1246 15.0692 20.9748 12.9277 21.7155 11.0319C22.4341 9.19279 23.9444 7.71245 25.5778 6.42828L25.5784 6.42785C29.2318 3.56021 33.175 2.04272 36.9143 2.00068L36.9149 2.00068L36.9155 2.00067Z" fill="#242424"/>
<path d="M50.1475 20.2922L50.2494 17.2403C42.1888 15.0287 31.9326 15.0138 23.2837 17.1335L23.3992 20.3996" fill="#B1D423"/>
<path fill-rule="evenodd" clip-rule="evenodd" d="M23.0717 16.3131C31.8556 14.1603 42.2672 14.1709 50.4865 16.4261L51.1422 16.606L51.0181 20.3201L49.2782 20.2651L49.3579 17.8815C41.7712 15.9422 32.3099 15.9248 24.1786 17.7929L24.2698 20.3709L22.53 20.4291L22.3904 16.4801L23.0717 16.3131Z" fill="#242424"/>
<path d="M49.9285 20.9203C48.9886 23.9523 43.6058 25.9079 36.7827 25.9079C29.9527 25.9079 24.57 23.9523 23.63 20.9203C32.5021 19.0238 40.7115 18.9975 49.9285 20.9203Z" fill="#232323"/>
<path fill-rule="evenodd" clip-rule="evenodd" d="M24.9006 21.5241C25.5098 22.3545 26.6378 23.1354 28.3091 23.7615C30.5006 24.5824 33.442 25.0617 36.7813 25.0617C40.1171 25.0617 43.0567 24.5824 45.2474 23.7615C46.9152 23.1366 48.042 22.3573 48.6519 21.5285C40.3702 19.9277 32.8865 19.9472 24.9006 21.5241ZM23.4417 20.0939C32.4376 18.1709 40.773 18.1451 50.1097 20.093L51.0331 20.2856L50.7605 21.1649C50.1732 23.0594 48.2748 24.4413 45.8734 25.3411C43.4319 26.256 40.2686 26.7546 36.7813 26.7546C33.2907 26.7546 30.1257 26.2561 27.6833 25.3412C25.2811 24.4413 23.3826 23.0595 22.7953 21.1649L22.524 20.2901L23.4417 20.0939Z" fill="#242424"/>
<path d="M52.9533 47.5527L38.6124 70.9706L45.5493 70.9516L57.8473 49.6017C57.1621 49.0385 55.3166 48.0479 52.9533 47.5527Z" fill="#242424"/>
<path fill-rule="evenodd" clip-rule="evenodd" d="M52.1894 47.1095C52.3849 46.7903 52.7682 46.628 53.1417 46.7062C55.6193 47.2254 57.606 48.2689 58.4229 48.9404C58.7485 49.2081 58.8332 49.6627 58.6248 50.0245L46.3269 71.3744C46.1699 71.6469 45.874 71.8161 45.5528 71.8169L38.6159 71.8359C38.2953 71.8368 37.999 71.6699 37.8401 71.3991C37.6813 71.1282 37.6846 70.7953 37.8486 70.5274L52.1894 47.1095ZM53.3839 48.5425L40.1821 70.1004L45.0278 70.0872L56.6785 49.861C55.9643 49.4405 54.8069 48.9082 53.3839 48.5425Z" fill="#242424"/>
<path d="M51.2173 48.177L45.3212 46.6409L37.8439 67.7025L47.5098 56.2449L46.4121 54.2526L49.0978 53.0284L51.2173 48.177ZM24.0078 48.177L29.904 46.6409L36.4977 67.4381L27.7153 56.2449L28.8131 54.2526L26.1274 53.0284L24.0078 48.177Z" fill="#087CC4"/>
<path fill-rule="evenodd" clip-rule="evenodd" d="M30.4884 45.6118L37.2234 66.855L44.7627 45.6188L52.4098 47.6109L49.7684 53.6568L47.6127 54.6395L48.5516 56.3436L38.5165 68.2388L37.0208 67.4258L37.0567 67.3246L35.8053 67.951L26.6832 56.3248L27.6118 54.6395L25.4561 53.6568L22.8147 47.6109L30.4884 45.6118ZM40.2515 63.5132L46.4673 56.1452L45.2108 53.8647L48.4265 52.3989L50.0242 48.742L45.879 47.6621L40.2515 63.5132ZM25.2003 48.742L26.798 52.3989L30.0137 53.8647L28.7468 56.164L34.2265 63.148L29.3189 47.669L25.2003 48.742Z" fill="#242424"/>
<path d="M32.301 51.8861C33.9421 56.5316 35.5831 65.3058 37.2241 65.8227C39.712 63.9002 41.0015 56.5397 42.8902 51.8982C41.1957 52.7084 39.4041 53.1257 37.5975 53.1309C35.7891 53.1224 33.9961 52.701 32.301 51.8861Z" fill="white"/>
<path fill-rule="evenodd" clip-rule="evenodd" d="M44.5889 50.1095L43.7297 52.221C43.1144 53.7332 42.5724 55.5144 42.0172 57.3388C41.7329 58.2732 41.4451 59.219 41.1423 60.1458C40.7041 61.4867 40.2363 62.7761 39.7102 63.8624C39.1935 64.9294 38.5744 65.9002 37.7862 66.5093L37.4075 66.802L36.9473 66.657C36.4397 66.4971 36.0905 66.0886 35.8601 65.7534C35.6074 65.3856 35.3758 64.922 35.1608 64.4146C34.729 63.396 34.307 62.0634 33.8956 60.6401C33.6128 59.6616 33.3345 58.6402 33.0588 57.6281C32.5176 55.6415 31.9861 53.6908 31.4493 52.1711L30.7374 50.1559L32.7017 51.1002C34.2785 51.8583 35.9356 52.2459 37.5994 52.2542C39.2615 52.2489 40.9173 51.8651 42.4934 51.1115L44.5889 50.1095ZM33.7369 53.3997C34.1019 54.6088 34.4669 55.9476 34.8275 57.2706C35.0986 58.2652 35.3673 59.2509 35.6317 60.1655C36.0408 61.581 36.4393 62.8292 36.8281 63.7463C36.9683 64.0771 37.1 64.3473 37.2215 64.5581C37.5026 64.1934 37.7891 63.7132 38.0787 63.1152C38.5532 62.1356 38.9923 60.9344 39.4236 59.6147C39.7006 58.7668 39.9757 57.8637 40.2541 56.9496C40.6151 55.7644 40.9817 54.5608 41.3654 53.4357C40.1376 53.8107 38.8744 54.0042 37.6012 54.0079L37.5977 54.0079L37.5942 54.0079C36.2886 54.0018 34.9937 53.796 33.7369 53.3997Z" fill="#242424"/>
<path fill-rule="evenodd" clip-rule="evenodd" d="M36.996 51.1013C26.1363 51.1013 17.3287 59.7132 17.3287 70.3487C17.3287 70.5635 17.3337 70.7773 17.3408 70.9904H34.8966C34.8398 70.8 34.8087 70.5987 34.8087 70.39C34.8087 69.2137 35.7884 68.2595 36.996 68.2595C38.212 68.2595 39.1915 69.2137 39.1915 70.39C39.1915 70.5987 39.1606 70.8 39.1038 70.9904H56.6595C56.6667 70.7773 56.6717 70.5635 56.6717 70.3487C56.6717 59.7132 47.8641 51.1013 36.996 51.1013ZM36.996 55.9789C44.3258 55.9789 50.3974 61.2186 51.5037 68.0868C40.5933 68.0868 40.5596 64.3359 36.996 64.3359C33.4324 64.3359 33.3985 68.0868 22.4882 68.0868C23.6029 61.2186 29.6745 55.9789 36.996 55.9789Z" fill="#3F4751"/>
<path fill-rule="evenodd" clip-rule="evenodd" d="M16.4375 70.3489C16.4375 59.2403 25.6385 50.2358 36.9949 50.2358C48.3594 50.2358 57.5607 59.2401 57.5607 70.3489C57.5607 70.5765 57.5554 70.8004 57.5481 71.0188L57.52 71.8562H37.9179L38.2478 70.7496C38.2818 70.6355 38.3002 70.5153 38.3002 70.3901C38.3002 69.6927 37.72 69.1253 36.9949 69.1253C36.2802 69.1253 35.6977 69.6906 35.6977 70.3901C35.6977 70.5147 35.7162 70.635 35.7504 70.7498L36.0799 71.8562H16.4781L16.45 71.0188C16.4427 70.8001 16.4375 70.5763 16.4375 70.3489ZM18.2191 70.125H33.9294C34.0673 68.5959 35.3862 67.3941 36.9949 67.3941C38.6095 67.3941 39.9307 68.5942 40.0686 70.125H55.7791C55.6566 60.0663 47.2902 51.967 36.9949 51.967C26.7081 51.967 18.3416 60.0661 18.2191 70.125ZM23.5718 67.2082C28.1823 67.0932 30.5282 66.2468 32.0789 65.4469C32.5067 65.2262 32.8835 65.004 33.2492 64.7854C33.283 64.7653 33.3168 64.745 33.3507 64.7247C33.6761 64.53 34.0068 64.3321 34.3385 64.1592C35.1002 63.7623 35.9158 63.4705 36.9949 63.4705C38.074 63.4705 38.8895 63.7623 39.6513 64.1593C39.9829 64.3321 40.3137 64.53 40.6391 64.7248C40.673 64.745 40.7068 64.7653 40.7405 64.7855C41.1062 65.004 41.483 65.2262 41.9108 65.4469C43.4616 66.2469 45.8078 67.0934 50.4191 67.2082C48.9752 61.2567 43.5116 56.8447 36.9949 56.8447C30.4868 56.8447 25.023 61.256 23.5718 67.2082ZM21.6078 67.952C22.7891 60.6737 29.2244 55.1135 36.9949 55.1135C44.7732 55.1135 51.2094 60.6734 52.3819 67.953L52.5429 68.9526H51.5025C45.9283 68.9526 43.0441 67.9912 41.0765 66.9762C40.5956 66.7281 40.1783 66.4814 39.8084 66.2604C39.776 66.241 39.7441 66.2219 39.7126 66.2031C39.3773 66.0025 39.0925 65.8321 38.8104 65.6851C38.2226 65.3788 37.6976 65.2017 36.9949 65.2017C36.2922 65.2017 35.7671 65.3788 35.1793 65.6851C34.8972 65.8321 34.6124 66.0025 34.2771 66.2031C34.2456 66.2219 34.2137 66.241 34.1813 66.2604C33.8114 66.4814 33.3941 66.7281 32.9131 66.9762C30.9455 67.9912 28.0613 68.9526 22.4871 68.9526H21.4454L21.6078 67.952Z" fill="#242424"/>
</svg>
