<svg width="74" height="74" viewBox="0 0 74 74" fill="none" xmlns="http://www.w3.org/2000/svg">
<path fill-rule="evenodd" clip-rule="evenodd" d="M52.694 39.5529V65.9999H46.4223V61.9132H9.43232V65.9999H3.16067V39.5529H1V35.4878H6.27677L9.21756 26.4676C10.0853 23.8065 11.5316 21.3916 14.3629 21.3916H42.5831C45.4143 21.3916 47.0447 23.759 47.7284 26.4633L50.003 35.4834H54.8503V39.5485H52.694V39.5529ZM18.5352 53.7527H37.0609V58.0597H18.5352V53.7527ZM5.25999 43.7217C9.98015 43.8685 12.8684 45.8169 13.609 49.882H5.25999V43.7217ZM49.9986 43.7217C45.2784 43.8685 42.3902 45.8169 41.6496 49.882H49.9986V43.7217ZM8.52948 35.4834H47.3251L45.6641 27.9191C45.2083 25.8455 43.8979 24.0527 41.7416 24.0527H14.9107C12.7544 24.0527 11.65 25.893 10.9882 27.9191L8.52948 35.4834Z" fill="#01A9EA"/>
<path d="M60.0365 31.76C59.0395 31.6655 58.0824 31.4339 57.1651 31.0653C56.2479 30.6967 55.3705 30.21 54.5331 29.6051L56.208 27.9607C56.7863 28.3576 57.3994 28.6789 58.0475 28.9247C58.6955 29.1704 59.3585 29.3405 60.0365 29.435V31.76ZM62.4292 31.76V29.435C64.503 29.1515 66.2178 28.2678 67.5737 26.784C68.9296 25.3002 69.6076 23.5754 69.6076 21.6095C69.6076 19.398 68.795 17.522 67.17 15.9814C65.5449 14.4409 63.5658 13.6706 61.2329 13.6706H60.9936L62.9078 15.4852L61.2329 17.073L56.4473 12.5365L61.2329 8L62.9078 9.64449L61.0534 11.4024H61.2329C62.7283 11.4024 64.1291 11.6717 65.4352 12.2105C66.7412 12.7492 67.8778 13.4769 68.8449 14.3936C69.812 15.3104 70.5797 16.3878 71.148 17.6259C71.7162 18.864 72.0004 20.1919 72.0004 21.6095C72.0004 24.1991 71.0931 26.4532 69.2786 28.3718C67.4641 30.2903 65.1809 31.4198 62.4292 31.76ZM52.7983 27.9607C52.1602 27.1668 51.6468 26.3351 51.2579 25.4656C50.8691 24.5961 50.6248 23.6888 50.5251 22.7437H52.9777C53.0774 23.3863 53.2569 24.0148 53.5161 24.6292C53.7753 25.2435 54.1143 25.8247 54.5331 26.3729L52.7983 27.9607ZM50.5251 20.4754C50.6448 19.5114 50.894 18.5852 51.2729 17.6968C51.6517 16.8084 52.1602 15.9956 52.7983 15.2584L54.5331 16.8462C54.1143 17.3944 53.7753 17.9756 53.5161 18.5899C53.2569 19.2042 53.0774 19.8327 52.9777 20.4754H50.5251Z" fill="#01A9EA"/>
</svg>
