<svg width="74" height="74" viewBox="0 0 74 74" fill="none" xmlns="http://www.w3.org/2000/svg">
<path fill-rule="evenodd" clip-rule="evenodd" d="M52.3441 38.477V64.9999H46.2362V60.9014H10.2121V64.9999H4.10425V38.477H2V34.4003H7.13898L10.003 25.3543C10.8481 22.6855 12.2566 20.2637 15.0139 20.2637H42.4972C45.2545 20.2637 46.8423 22.6379 47.5082 25.3499L49.7234 34.3959H54.4441V38.4727H52.3441V38.477ZM19.0773 52.7176H37.1192V57.037H19.0773V52.7176ZM6.14875 42.6578C10.7457 42.8051 13.5584 44.759 14.2798 48.8358H6.14875V42.6578ZM49.7191 42.6578C45.1222 42.8051 42.3094 44.759 41.5881 48.8358H49.7191V42.6578ZM9.33287 34.3959H47.1155L45.4978 26.81C45.0539 24.7304 43.7777 22.9325 41.6777 22.9325H15.5474C13.4475 22.9325 12.3719 24.7781 11.7274 26.81L9.33287 34.3959Z" fill="#F1C232"/>
<path d="M55.3537 21.9538C55.8161 21.9538 56.2091 21.7895 56.5328 21.461C56.8564 21.1325 57.0183 20.7335 57.0183 20.2642C57.0183 19.7948 56.8564 19.3959 56.5328 19.0674C56.2091 18.7388 55.8161 18.5746 55.3537 18.5746C54.8913 18.5746 54.4982 18.7388 54.1746 19.0674C53.8509 19.3959 53.689 19.7948 53.689 20.2642C53.689 20.7335 53.8509 21.1325 54.1746 21.461C54.4982 21.7895 54.8913 21.9538 55.3537 21.9538ZM60.9024 21.9538C61.3648 21.9538 61.7578 21.7895 62.0815 21.461C62.4052 21.1325 62.567 20.7335 62.567 20.2642C62.567 19.7948 62.4052 19.3959 62.0815 19.0674C61.7578 18.7388 61.3648 18.5746 60.9024 18.5746C60.44 18.5746 60.047 18.7388 59.7233 19.0674C59.3996 19.3959 59.2378 19.7948 59.2378 20.2642C59.2378 20.7335 59.3996 21.1325 59.7233 21.461C60.047 21.7895 60.44 21.9538 60.9024 21.9538ZM66.4511 21.9538C66.9135 21.9538 67.3066 21.7895 67.6302 21.461C67.9539 21.1325 68.1158 20.7335 68.1158 20.2642C68.1158 19.7948 67.9539 19.3959 67.6302 19.0674C67.3066 18.7388 66.9135 18.5746 66.4511 18.5746C65.9887 18.5746 65.5957 18.7388 65.272 19.0674C64.9484 19.3959 64.7865 19.7948 64.7865 20.2642C64.7865 20.7335 64.9484 21.1325 65.272 21.461C65.5957 21.7895 65.9887 21.9538 66.4511 21.9538ZM60.9024 31.5284C59.3673 31.5284 57.9246 31.2327 56.5744 30.6413C55.2242 30.0499 54.0497 29.2474 53.0509 28.2336C52.0522 27.2198 51.2615 26.0277 50.6789 24.6572C50.0962 23.2867 49.8049 21.8224 49.8049 20.2642C49.8049 18.706 50.0962 17.2416 50.6789 15.8712C51.2615 14.5007 52.0522 13.3085 53.0509 12.2948C54.0497 11.281 55.2242 10.4784 56.5744 9.88705C57.9246 9.29568 59.3673 9 60.9024 9C62.4376 9 63.8802 9.29568 65.2304 9.88705C66.5806 10.4784 67.7551 11.281 68.7539 12.2948C69.7526 13.3085 70.5433 14.5007 71.1259 15.8712C71.7086 17.2416 71.9999 18.706 71.9999 20.2642C71.9999 21.8224 71.7086 23.2867 71.1259 24.6572C70.5433 26.0277 69.7526 27.2198 68.7539 28.2336C67.7551 29.2474 66.5806 30.0499 65.2304 30.6413C63.8802 31.2327 62.4376 31.5284 60.9024 31.5284Z" fill="#F1C232"/>
</svg>
