<svg width="24" height="24" viewBox="0 0 24 24" fill="none" xmlns="http://www.w3.org/2000/svg">
<path d="M9.29997 6.58615C10.3909 6.58615 11.2754 5.70174 11.2754 4.61077C11.2754 3.51979 10.3909 2.63538 9.29997 2.63538C8.20899 2.63538 7.32458 3.51979 7.32458 4.61077C7.32458 5.70174 8.20899 6.58615 9.29997 6.58615Z" fill="#7C7C7C"/>
<path d="M14.6954 6.58615C15.7863 6.58615 16.6707 5.70174 16.6707 4.61077C16.6707 3.51979 15.7863 2.63538 14.6954 2.63538C13.6044 2.63538 12.72 3.51979 12.72 4.61077C12.72 5.70174 13.6044 6.58615 14.6954 6.58615Z" fill="#7C7C7C"/>
<path d="M5.24312 11.7138C6.62468 11.7138 7.74465 10.5939 7.74465 9.21231C7.74465 7.83075 6.62468 6.71077 5.24312 6.71077C3.86155 6.71077 2.74158 7.83075 2.74158 9.21231C2.74158 10.5939 3.86155 11.7138 5.24312 11.7138Z" fill="#7C7C7C"/>
<path d="M18.8216 11.7138C20.2032 11.7138 21.3231 10.5939 21.3231 9.21231C21.3231 7.83075 20.2032 6.71077 18.8216 6.71077C17.44 6.71077 16.3201 7.83075 16.3201 9.21231C16.3201 10.5939 17.44 11.7138 18.8216 11.7138Z" fill="#7C7C7C"/>
<path d="M12.0323 13.1446C13.4139 13.1446 14.5338 12.0246 14.5338 10.6431C14.5338 9.26151 13.4139 8.14154 12.0323 8.14154C10.6507 8.14154 9.53076 9.26151 9.53076 10.6431C9.53076 12.0246 10.6507 13.1446 12.0323 13.1446Z" fill="#7C7C7C"/>
<path d="M14.8569 21.3646C15.0451 21.3706 15.2323 21.3353 15.4053 21.2612C15.5783 21.187 15.733 21.0758 15.8584 20.9354C16.128 20.6712 16.2823 20.3112 16.2877 19.9338V16.7031C16.2852 16.1359 16.0588 15.5926 15.6577 15.1915C15.2566 14.7904 14.7133 14.564 14.1461 14.5615H9.85382C9.2866 14.564 8.7433 14.7904 8.34221 15.1915C7.94112 15.5926 7.71471 16.1359 7.71228 16.7031V19.9338C7.72164 20.3104 7.87539 20.6689 8.1417 20.9352C8.40802 21.2015 8.76653 21.3553 9.14305 21.3646H14.8569Z" fill="#7C7C7C"/>
<path d="M5.53849 19.9338V16.7031C5.53745 15.5941 5.97359 14.5295 6.75233 13.74C6.81556 13.6655 6.84711 13.5692 6.8402 13.4717C6.8333 13.3742 6.78851 13.2833 6.71541 13.2185C6.65594 13.1671 6.58147 13.1364 6.5031 13.1308H3.06925C2.78681 13.1314 2.50725 13.1876 2.24654 13.2963C1.98583 13.4049 1.74907 13.5638 1.54978 13.764C1.35049 13.9641 1.19258 14.2016 1.08505 14.4627C0.977525 14.7239 0.922494 15.0037 0.923101 15.2862V18.5169C0.932459 18.8934 1.08621 19.2519 1.35252 19.5183C1.61884 19.7846 1.97735 19.9383 2.35387 19.9477L5.53849 19.9338Z" fill="#7C7C7C"/>
<path d="M21.6461 19.9338C21.8341 19.9383 22.0208 19.9023 22.1936 19.8282C22.3664 19.7542 22.5213 19.6438 22.6477 19.5046C22.9173 19.2404 23.0715 18.8805 23.0769 18.5031V15.2723C23.0757 14.7035 22.8492 14.1583 22.447 13.7561C22.0448 13.3539 21.4996 13.1274 20.9308 13.1262H17.5015C17.4309 13.1261 17.3618 13.147 17.3031 13.1863C17.2445 13.2257 17.1988 13.2816 17.1721 13.347C17.1453 13.4124 17.1387 13.4842 17.153 13.5534C17.1673 13.6226 17.2018 13.6859 17.2523 13.7354C18.0275 14.5343 18.4612 15.6037 18.4615 16.7169V19.9477L21.6461 19.9338Z" fill="#7C7C7C"/>
</svg>
