<svg width="30" height="30" viewBox="0 0 30 30" fill="none" xmlns="http://www.w3.org/2000/svg">
<path d="M27.3501 5.91246L20.2501 25.8125C20.0802 26.3067 19.7598 26.7352 19.3338 27.0379C18.9078 27.3406 18.3976 27.5022 17.8751 27.5C17.3585 27.5058 16.8528 27.3516 16.4275 27.0583C16.0023 26.7651 15.6782 26.3473 15.5001 25.8625L12.8501 18.9625L14.7751 17.0375L17.8876 13.925C18.1229 13.6896 18.2552 13.3703 18.2552 13.0375C18.2552 12.7046 18.1229 12.3853 17.8876 12.15C17.6522 11.9146 17.3329 11.7823 17.0001 11.7823C16.6672 11.7823 16.3479 11.9146 16.1126 12.15L13.0001 15.2625L11.0251 17.2L4.13756 14.5375C3.62322 14.3825 3.17247 14.066 2.85206 13.6349C2.53166 13.2038 2.35864 12.6809 2.35864 12.1437C2.35864 11.6065 2.53166 11.0837 2.85206 10.6525C3.17247 10.2214 3.62322 9.9049 4.13756 9.74996L24.0876 2.64996C24.5438 2.46252 25.0453 2.41422 25.5289 2.51114C26.0125 2.60806 26.4566 2.84587 26.8054 3.19464C27.1541 3.5434 27.392 3.98754 27.4889 4.47115C27.5858 4.95476 27.5375 5.45624 27.3501 5.91246Z" fill="black"/>
</svg>
