<svg width="24" height="24" viewBox="0 0 24 24" fill="none" xmlns="http://www.w3.org/2000/svg">
<g clip-path="url(#clip0_534_2429)">
<path d="M16.2884 11.3884H12.3142C11.8705 11.3884 11.5109 11.748 11.5109 12.1916V23.1841C11.5109 23.6278 11.8705 23.9874 12.3142 23.9874H16.2884C16.732 23.9874 17.0916 23.6278 17.0916 23.1841V12.1916C17.0916 11.748 16.7319 11.3884 16.2884 11.3884Z" fill="#7C7C7C"/>
<path d="M24.7726 5.89212H20.7984C20.3547 5.89212 19.9951 6.25175 19.9951 6.69542V23.1841C19.9951 23.6278 20.3547 23.9874 20.7984 23.9874H24.7726C25.2162 23.9874 25.5759 23.6278 25.5759 23.1841V6.69542C25.5759 6.25175 25.2163 5.89212 24.7726 5.89212Z" fill="#7C7C7C"/>
<path d="M7.80398 14.9524H3.82978C3.38611 14.9524 3.02649 15.312 3.02649 15.7557V23.1967C3.02649 23.6404 3.3862 24 3.82978 24H7.80398C8.24765 24 8.60728 23.6404 8.60728 23.1967V15.7557C8.60728 15.3121 8.24765 14.9524 7.80398 14.9524Z" fill="#7C7C7C"/>
<path d="M18.1407 1.53801L15.162 0.123113C14.529 -0.177742 13.7726 0.0919116 13.4722 0.72457C13.1716 1.35723 13.4409 2.11393 14.0736 2.41436L14.3158 2.52945L2.84363 6.61289C2.18366 6.84779 1.83918 7.57321 2.07399 8.23318C2.25884 8.75253 2.74749 9.07655 3.26896 9.07655C3.41017 9.07655 3.55366 9.05288 3.69428 9.00282L15.1232 4.93477L15.036 5.11825C14.7354 5.751 15.0048 6.50762 15.6375 6.80805C15.8132 6.89151 15.9985 6.93108 16.1808 6.93108C16.6552 6.931 17.1103 6.66363 17.3274 6.20659L18.7422 3.22781C19.0428 2.59515 18.7735 1.83853 18.1407 1.53801Z" fill="#7C7C7C"/>
</g>
<defs>
<clipPath id="clip0_534_2429">
<rect width="24" height="24" fill="white"/>
</clipPath>
</defs>
</svg>
