<svg width="74" height="74" viewBox="0 0 74 74" fill="none" xmlns="http://www.w3.org/2000/svg">
<path d="M63.3418 46.0201C60.4575 40.9953 55.2323 39.4374 52.3758 38.9461C51.0103 38.7216 49.8259 38.2865 48.8784 37.6549C46.9276 36.3495 46.1613 34.7495 45.8687 33.6266C48.6554 30.3703 51.08 25.0508 50.7734 16.4609C52.5848 12.8117 52.0135 8.79745 51.9857 8.58692C51.916 8.16585 51.6652 7.80092 51.3029 7.59038C51.1201 7.49025 50.9166 7.43431 50.7087 7.427C50.5007 7.41969 50.2939 7.46121 50.1046 7.54827C48.3489 8.32024 45.7293 7.29563 44.8376 6.81842C33.147 0.979566 27.0997 7.64652 25.762 9.41502C24.494 10.0186 21.6236 12.2222 21.9302 19.7453C21.9302 19.9558 21.9859 22.2998 22.7523 25.2754C23.5187 28.2509 24.9678 31.8721 27.7824 34.6512C27.4759 35.6899 26.7374 37.304 24.8563 38.5812C23.9227 39.1988 22.7662 39.6339 21.4286 39.8725C19.1573 40.2515 13.5977 41.6971 10.6298 46.9465C9.55687 48.8413 8.99951 51.1151 8.99951 53.5573V66.3438C8.99951 67.7755 10.156 68.9545 11.5773 68.9545H62.4222C63.8434 68.9545 64.9999 67.7755 64.9999 66.3438V52.6169C64.9999 50.1747 64.4287 47.9009 63.3418 46.0201ZM47.2203 39.7883L42.3295 46.8061L40.2254 43.3955L45.8547 38.6654C46.2449 39.0584 46.7047 39.4234 47.2203 39.7883ZM36.4493 49.6975H37.5501L39.0132 59.6067L36.9928 61.3331L34.9863 59.6067L36.4493 49.6975ZM35.6551 45.1218H38.1075L38.2747 45.3745L37.7452 46.9746H36.2543L35.6551 45.1218ZM37.5919 42.0621C37.4665 42.1603 37.3829 42.2726 37.3132 42.3989H36.31C36.237 42.2714 36.1427 42.1574 36.0313 42.0621L29.8168 36.8408C29.8725 36.7145 29.9561 36.5741 29.9979 36.4478C30.0955 36.518 30.1791 36.5881 30.2766 36.6443C32.107 37.7966 34.2212 38.4092 36.3797 38.4128C38.8042 38.4128 41.2287 37.6268 43.277 36.0829C43.4302 35.9565 43.5835 35.8302 43.7507 35.7039C43.8622 35.9706 44.0015 36.2513 44.1687 36.532L37.5919 42.0621ZM24.6334 19.7032C24.6334 19.6892 24.6194 19.6892 24.6194 19.6751C24.6194 19.6751 24.6334 19.6751 24.6334 19.6611C24.3408 12.8538 26.9603 11.8572 26.9603 11.8572C27.2948 11.773 27.5874 11.5484 27.7824 11.2537C27.9636 10.9449 32.6036 3.7446 43.5974 9.23256C43.7368 9.30274 46.5514 10.8046 49.3939 10.5098C49.38 12.2081 49.0317 15.0153 47.1367 17.0224C45.2556 19.0154 42.1901 19.8295 38.0657 19.4225C36.7559 19.254 33.1609 18.3558 32.1716 16.3066C32.0791 16.1083 31.9388 15.9364 31.7636 15.8065C31.5885 15.6766 31.3839 15.5928 31.1684 15.5627C30.9509 15.5282 30.7283 15.5471 30.5196 15.618C30.311 15.6889 30.1224 15.8096 29.9701 15.9697C29.9283 16.0258 29.0504 16.9803 28.6603 18.6926L27.8103 18.061C27.5567 17.8639 27.2411 17.7654 26.9213 17.7834C26.6015 17.8015 26.2988 17.9349 26.0686 18.1593C26.0128 18.2154 25.3997 18.847 24.6473 20.0962C24.6334 19.8576 24.6334 19.7032 24.6334 19.7032ZM25.4973 24.9806C26.0407 23.1279 26.7374 21.8085 27.253 21.0366L29.1062 22.4402C29.3204 22.6031 29.578 22.6979 29.846 22.7125C30.114 22.7272 30.3802 22.6609 30.6107 22.5222C30.8411 22.3836 31.0252 22.1788 31.1395 21.9342C31.2537 21.6895 31.2929 21.4161 31.252 21.1489C31.1544 20.4892 31.1823 19.9278 31.2659 19.4505C33.6347 21.5278 37.2296 22.0612 37.7591 22.1314C42.1344 22.5524 45.59 21.7945 48.0563 19.8435C47.5965 27.7176 44.4335 31.802 41.6606 33.9073C40.2371 34.9841 38.5228 35.6008 36.7442 35.676C34.9655 35.7512 33.206 35.2813 31.6979 34.3284C28.1308 32.0967 26.3751 28.1948 25.4973 24.9806ZM28.3119 39.1286L33.3978 43.3955L31.2938 46.8061L26.8628 40.448C27.4202 40.0128 27.9078 39.5777 28.3119 39.1286ZM62.2968 66.2315H11.7027V53.5573C11.7027 51.5923 12.1346 49.7677 12.9707 48.2939C15.3673 44.0692 19.9934 42.8761 21.8745 42.5533C22.822 42.3849 23.6998 42.1322 24.508 41.7954L30.2487 50.0484C30.4996 50.4133 30.9176 50.6379 31.3495 50.6379H31.3913C31.8511 50.6238 32.2692 50.3852 32.506 49.9922L33.7462 47.9851L33.8994 48.4623L32.2134 59.9436C32.1438 60.4208 32.311 60.8839 32.6732 61.1787L36.1289 64.1543C36.1846 64.2104 36.2682 64.2385 36.3379 64.2806C36.3936 64.3086 36.4354 64.3508 36.4911 64.3648C36.6583 64.435 36.8256 64.4771 36.9928 64.4771H37.0067C37.1739 64.4771 37.3411 64.435 37.5083 64.3648C37.5641 64.3508 37.6059 64.3086 37.6616 64.2806C37.7313 64.2385 37.8149 64.2104 37.8706 64.1543L41.3262 61.1787C41.5037 61.0316 41.6397 60.84 41.7204 60.6232C41.8011 60.4063 41.8237 60.172 41.786 59.9436L40.1 48.4623L40.1279 48.3922L41.1172 49.9922C41.3541 50.3852 41.7721 50.6238 42.2319 50.6379H42.2598C42.7057 50.6379 43.1237 50.4133 43.3745 50.0484L49.6448 41.0375C50.3693 41.2901 51.1218 41.5006 51.9299 41.627C54.3126 42.034 58.6739 43.3253 61.0009 47.3956C61.8509 48.8553 62.2968 50.666 62.2968 52.6169V66.2315Z" fill="#2A2F63"/>
<path d="M38.2329 45.189L37.7033 46.8061H36.2119L35.6125 44.9336H38.0657L38.2329 45.189ZM38.9717 59.5729L36.9506 61.3177L34.9435 59.5729L36.407 49.558H37.5081L38.9717 59.5729ZM33.3545 43.1888L31.2499 46.6359L26.8175 40.2099C27.375 39.7702 27.8629 39.3304 28.2671 38.8765L33.3545 43.1888ZM47.1813 39.5432L42.289 46.6359L40.1843 43.1888L45.8154 38.4084C46.2056 38.8056 46.6656 39.1744 47.1813 39.5432Z" fill="#EDECED"/>
<path d="M62.4547 52.6536V66.4091H11.5452V53.6037C11.5452 51.6184 11.9798 49.7749 12.8211 48.2859C15.2326 44.0174 19.8875 42.812 21.7803 42.4859C22.7338 42.3157 23.6171 42.0605 24.4303 41.7201L30.2068 50.0585C30.4592 50.4272 30.8798 50.6541 31.3145 50.6541H31.3565C31.8192 50.6399 32.2398 50.3988 32.4782 50.0018L33.7261 47.9739L33.8803 48.4561L32.1838 60.056C32.1137 60.5382 32.2819 61.0062 32.6465 61.304L36.1236 64.3103C36.1797 64.367 36.2638 64.3954 36.3339 64.4379C36.39 64.4663 36.4321 64.5088 36.4881 64.523C36.6564 64.5939 36.8246 64.6365 36.9929 64.6365H37.0069C37.1752 64.6365 37.3434 64.5939 37.5117 64.523C37.5678 64.5088 37.6098 64.4663 37.6659 64.4379C37.736 64.3954 37.8201 64.367 37.8762 64.3103L41.3534 61.304C41.532 61.1553 41.6688 60.9617 41.75 60.7427C41.8312 60.5236 41.854 60.2868 41.816 60.056L40.1195 48.4561L40.1476 48.3851L41.1431 50.0018C41.3814 50.3988 41.802 50.6399 42.2647 50.6541H42.2928C42.7414 50.6541 43.162 50.4272 43.4144 50.0585L49.7238 40.9543C50.4529 41.2096 51.21 41.4223 52.0232 41.5499C54.4207 41.9612 58.8092 43.2658 61.1507 47.3783C62.006 48.8531 62.4547 50.6825 62.4547 52.6536Z" fill="#53BE9E"/>
<path d="M44.636 36.7034L38.026 42.3102C37.9 42.4098 37.816 42.5237 37.7459 42.6518H36.7376C36.6643 42.5224 36.5695 42.4069 36.4576 42.3102L30.2117 37.0165C30.2677 36.8884 30.3517 36.7461 30.3937 36.618C30.4918 36.6892 30.5758 36.7603 30.6738 36.8173C32.5134 37.9855 34.6383 38.6067 36.8077 38.6103C39.2444 38.6103 41.6811 37.8134 43.7398 36.2481C43.8938 36.12 44.0478 35.9919 44.2159 35.8638C44.3279 36.1342 44.468 36.4188 44.636 36.7034Z" fill="#FFE4AA"/>
<path d="M48.0298 20.1325C47.5801 27.9522 44.487 32.0085 41.7754 34.0993C40.3832 35.1687 38.7069 35.7811 36.9675 35.8558C35.2281 35.9304 33.5074 35.4638 32.0326 34.5175C28.5443 32.3012 26.8274 28.4261 25.969 25.2341C26.5004 23.3942 27.1817 22.0839 27.6859 21.3173L29.4982 22.7112C29.7076 22.873 29.9596 22.9672 30.2216 22.9817C30.4837 22.9962 30.7441 22.9304 30.9695 22.7927C31.1948 22.655 31.3748 22.4517 31.4866 22.2087C31.5983 21.9657 31.6366 21.6942 31.5966 21.4288C31.5012 20.7737 31.5285 20.2161 31.6102 19.7422C33.9267 21.8052 37.4422 22.3348 37.96 22.4045C42.2386 22.8227 45.6179 22.07 48.0298 20.1325Z" fill="#FFE4AA"/>
<path d="M49.7273 10.9277C49.7135 12.4892 49.3676 15.0702 47.4862 16.9156C45.6185 18.7481 42.575 19.4966 38.48 19.1224C37.1796 18.9675 33.6103 18.1416 32.6281 16.2575C32.5362 16.0751 32.397 15.9171 32.2231 15.7977C32.0491 15.6782 31.846 15.6012 31.632 15.5735C31.4161 15.5418 31.1951 15.5592 30.9879 15.6244C30.7808 15.6896 30.5936 15.8005 30.4423 15.9477C30.4008 15.9994 29.5292 16.8769 29.1419 18.4513L28.298 17.8706C28.0462 17.6894 27.7328 17.5988 27.4153 17.6154C27.0978 17.632 26.7972 17.7546 26.5687 17.9609C26.5133 18.0125 25.9046 18.5933 25.1576 19.7418C25.1437 19.5224 25.1437 19.3805 25.1437 19.3805C25.1437 19.3676 25.1299 19.3675 25.1299 19.3546C25.1299 19.3546 25.1437 19.3546 25.1437 19.3417C24.8532 13.0829 27.4541 12.1666 27.4541 12.1666C27.7861 12.0892 28.0766 11.8827 28.2703 11.6117C28.4501 11.3278 33.057 4.70756 43.9723 9.75339C44.1106 9.81791 46.9051 11.1987 49.7273 10.9277Z" fill="#4EBCE5"/>
</svg>
